<?xml version="1.0" encoding="UTF-8" standalone="no"?>
<!DOCTYPE svg PUBLIC "-//W3C//DTD SVG 1.1//EN"
 "http://www.w3.org/Graphics/SVG/1.1/DTD/svg11.dtd">
<!-- Generated by graphviz version 2.38.0 (20140413.2041)
 -->
<!-- Title: foo Pages: 1 -->
<svg width="753pt" height="288pt"
 viewBox="0.00 0.00 753.31 288.00" xmlns="http://www.w3.org/2000/svg" xmlns:xlink="http://www.w3.org/1999/xlink">
<g id="graph0" class="graph" transform="scale(0.941289 0.941289) rotate(0) translate(4 301.963)">
<title>foo</title>
<polygon fill="white" stroke="none" points="-4,4 -4,-301.963 796.293,-301.963 796.293,4 -4,4"/>
<g id="clust1" class="cluster"><title>cluster_0</title>
<polygon fill="none" stroke="black" stroke-dasharray="5,2" points="8.75138,-69.3222 8.75138,-202.33 443.056,-202.33 443.056,-69.3222 8.75138,-69.3222"/>
<text text-anchor="middle" x="225.904" y="-187.13" font-family="Times,serif" font-size="14.00">Github</text>
</g>
<g id="clust2" class="cluster"><title>cluster_1</title>
<polygon fill="none" stroke="darkgreen" stroke-dasharray="5,2" points="578.921,-18.7573 578.921,-289.17 783.542,-289.17 783.542,-18.7573 578.921,-18.7573"/>
<text text-anchor="middle" x="681.231" y="-273.97" font-family="Times,serif" font-size="14.00" fill="darkgreen">Your computer</text>
</g>
<!-- O -->
<g id="node1" class="node"><title>O</title>
<g id="a_node1"><a xlink:title="The only thing that makes
a repo &quot;official&quot; is convention. 

Each copy of a repo that
is separate from your local 
clone is called a remote. 

By convention, the &quot;official&quot;
remote is often called &quot;upstream&quot;.">
<ellipse fill="white" stroke="#8b4513" cx="84.5417" cy="-105.834" rx="61.7371" ry="25.4118"/>
<text text-anchor="middle" x="84.5417" y="-108.634" font-family="Times,serif" font-size="14.00" fill="#8b4513">Official repo</text>
<text text-anchor="middle" x="84.5417" y="-94.6336" font-family="Times,serif" font-size="14.00" fill="#8b4513">(upstream)</text>
</a>
</g>
</g>
<!-- U -->
<g id="node2" class="node"><title>U</title>
<g id="a_node2"><a xlink:title="Github calls your clone of an
&quot;official&quot; repo a &quot;fork&quot;. Creating a
fork on github enables the easy exchange
of code between collaborators.
Your fork is special because you have both 
read and write access to it.

By convention, the name of the remote
for your copy on github is often &quot;origin&quot;.">
<ellipse fill="white" stroke="#8b4513" cx="376.542" cy="-141.834" rx="52.2819" ry="25.4118"/>
<text text-anchor="middle" x="376.542" y="-144.634" font-family="Times,serif" font-size="14.00" fill="#8b4513">Your copy</text>
<text text-anchor="middle" x="376.542" y="-130.634" font-family="Times,serif" font-size="14.00" fill="#8b4513">(origin)</text>
</a>
</g>
</g>
<!-- O&#45;&gt;U -->
<g id="edge1" class="edge"><title>O&#45;&gt;U</title>
<path fill="none" stroke="blue" d="M135.028,-120.705C148.54,-124.245 163.258,-127.631 177.043,-129.834 222.421,-137.084 274.274,-140.039 313.6,-141.205"/>
<polygon fill="blue" stroke="blue" points="313.74,-144.71 323.829,-141.477 313.926,-137.713 313.74,-144.71"/>
<text text-anchor="middle" x="235.542" y="-143.634" font-family="Times,serif" font-size="14.00" fill="blue">Fork (once to create)</text>
</g>
<!-- C1 -->
<g id="node4" class="node"><title>C1</title>
<ellipse fill="white" stroke="#8b4513" cx="681.542" cy="-65.8336" rx="85.5522" ry="35.2113"/>
<text text-anchor="middle" x="681.542" y="-75.6336" font-family="Times,serif" font-size="14.00" fill="#8b4513">Clone</text>
<text text-anchor="middle" x="681.542" y="-61.6336" font-family="Times,serif" font-size="14.00" fill="#8b4513">(Make new branch</text>
<text text-anchor="middle" x="681.542" y="-47.6336" font-family="Times,serif" font-size="14.00" fill="#8b4513">modify code here)</text>
</g>
<!-- O&#45;&gt;C1 -->
<g id="edge5" class="edge"><title>O:se&#45;&gt;C1:sw</title>
<g id="a_edge5"><a xlink:title="obtain latest">
<path fill="none" stroke="black" stroke-dasharray="5,2" d="M109.542,-81.8336C263.275,71.8999 378.904,-41.9064 596.016,-30.4783 615.686,-29.4429 625.697,-20.9823 640.64,-27.5177"/>
<polygon fill="black" stroke="black" points="639.162,-30.7113 649.542,-32.8336 642.751,-24.7014 639.162,-30.7113"/>
</a>
</g>
<text text-anchor="middle" x="376.542" y="-22.6336" font-family="Times,serif" font-size="14.00">pull updates</text>
</g>
<!-- U&#45;&gt;O -->
<g id="edge2" class="edge"><title>U&#45;&gt;O</title>
<g id="a_edge2"><a xlink:title="A pull request gets its name
from the action the *official* repo
will have to take to get your changes.

They will pull them in if they accept your request.">
<path fill="none" stroke="brown" stroke-width="2" d="M345.683,-121.081C330.872,-112.03 312.28,-102.443 294.04,-97.8336 247.157,-85.9864 192.474,-88.6702 150.875,-93.9518"/>
<polygon fill="brown" stroke="brown" stroke-width="2" points="150.305,-90.4969 140.864,-95.3046 151.242,-97.4339 150.305,-90.4969"/>
</a>
</g>
<text text-anchor="middle" x="235.542" y="-114.634" font-family="Times,serif" font-size="14.00" fill="brown">Pull request</text>
<text text-anchor="middle" x="235.542" y="-100.634" font-family="Times,serif" font-size="14.00" fill="brown">(you initiate)</text>
</g>
<!-- C2 -->
<g id="node3" class="node"><title>C2</title>
<g id="a_node3"><a xlink:title="
You can make as many local
clones of the github repo 
as you want.
">
<ellipse fill="white" stroke="burlywood" stroke-dasharray="5,2" cx="681.542" cy="-152.834" rx="50.2024" ry="25.4118"/>
<text text-anchor="middle" x="681.542" y="-155.634" font-family="Times,serif" font-size="14.00" fill="burlywood">Clone 2</text>
<text text-anchor="middle" x="681.542" y="-141.634" font-family="Times,serif" font-size="14.00" fill="burlywood">(optional)</text>
</a>
</g>
</g>
<!-- U&#45;&gt;C2 -->
<g id="edge6" class="edge"><title>U&#45;&gt;C2</title>
<path fill="none" stroke="burlywood" stroke-dasharray="5,2" d="M423.652,-163.514C434.802,-167.784 446.851,-171.625 458.442,-173.834 515.212,-184.654 581.259,-175.726 626.481,-166.395"/>
<polygon fill="burlywood" stroke="burlywood" points="424.704,-160.164 414.12,-159.68 422.092,-166.659 424.704,-160.164"/>
<polygon fill="burlywood" stroke="burlywood" points="627.324,-169.794 636.371,-164.279 625.86,-162.949 627.324,-169.794"/>
</g>
<!-- U&#45;&gt;C1 -->
<g id="edge3" class="edge"><title>U&#45;&gt;C1:nw</title>
<path fill="none" stroke="blue" d="M428.048,-136.991C493.812,-130.264 604.409,-117.383 638.619,-103.842"/>
<polygon fill="blue" stroke="blue" points="640.535,-106.78 647.542,-98.8336 637.108,-100.676 640.535,-106.78"/>
<text text-anchor="middle" x="510.542" y="-150.634" font-family="Times,serif" font-size="14.00" fill="blue">clone to create</text>
<text text-anchor="middle" x="510.542" y="-136.634" font-family="Times,serif" font-size="14.00" fill="blue">(once per clone)</text>
</g>
<!-- C3 -->
<g id="node5" class="node"><title>C3</title>
<g id="a_node5"><a xlink:title="
You can make as many local
clones of the github repo 
as you want.
">
<ellipse fill="white" stroke="burlywood" stroke-dasharray="5,2" cx="681.542" cy="-228.834" rx="50.2024" ry="25.4118"/>
<text text-anchor="middle" x="681.542" y="-231.634" font-family="Times,serif" font-size="14.00" fill="burlywood">Clone 3</text>
<text text-anchor="middle" x="681.542" y="-217.634" font-family="Times,serif" font-size="14.00" fill="burlywood">(optional)</text>
</a>
</g>
</g>
<!-- U&#45;&gt;C3 -->
<g id="edge7" class="edge"><title>U&#45;&gt;C3</title>
<path fill="none" stroke="burlywood" stroke-dasharray="5,2" d="M415.256,-168.698C428.387,-176.938 443.566,-185.285 458.442,-190.834 511.599,-210.662 575.81,-220.22 621.489,-224.78"/>
<polygon fill="burlywood" stroke="burlywood" points="416.818,-165.54 406.521,-163.046 413.015,-171.417 416.818,-165.54"/>
<polygon fill="burlywood" stroke="burlywood" points="621.237,-228.272 631.523,-225.732 621.898,-221.303 621.237,-228.272"/>
</g>
<!-- C1&#45;&gt;U -->
<g id="edge4" class="edge"><title>C1:w&#45;&gt;U</title>
<path fill="none" stroke="brown" stroke-width="2" d="M594.542,-65.8336C533.994,-65.8336 514.7,-49.4499 458.442,-71.8336 437.574,-80.1364 418.37,-96.2136 403.914,-110.868"/>
<polygon fill="brown" stroke="brown" stroke-width="2" points="401.153,-108.693 396.803,-118.353 406.228,-113.514 401.153,-108.693"/>
<text text-anchor="middle" x="510.542" y="-90.6336" font-family="Times,serif" font-size="14.00" fill="brown">push your changes</text>
</g>
</g>
</svg>
